<svg xmlns="http://www.w3.org/2000/svg" version="1.1" xmlns:xlink="http://www.w3.org/1999/xlink" width="200" height="200"><svg xmlns="http://www.w3.org/2000/svg" version="1.1" xmlns:xlink="http://www.w3.org/1999/xlink" viewBox="0 0 200 200"><rect width="200" height="200" fill="url('#gradient')"></rect><defs><linearGradient id="SvgjsLinearGradient1006" gradientTransform="rotate(45 0.5 0.5)"><stop offset="0%" stop-color="#13bfed"></stop><stop offset="100%" stop-color="#ffffff"></stop></linearGradient></defs><g><g fill="#2e4154" transform="matrix(2.010487250089788,0,0,2.010487250089788,15.840651170610606,114.87994901519414)" stroke="#99b4c4" stroke-width="0"><path d="M12.95-14.22L12.95 0L9.54 0L4.50-8.85L4.50 0L1.07 0L1.07-14.22L4.50-14.22L9.53-5.37L9.53-14.22L12.95-14.22ZM20.08 0.20L20.08 0.20Q17.65 0.20 16.14-1.25Q14.64-2.71 14.64-5.03L14.64-5.03L14.64-5.30Q14.64-6.92 15.24-8.16Q15.84-9.40 16.99-10.08Q18.14-10.76 19.73-10.76L19.73-10.76Q21.95-10.76 23.24-9.38Q24.53-8.00 24.53-5.53L24.53-5.53L24.53-4.25L17.99-4.25Q18.16-3.36 18.76-2.85Q19.36-2.34 20.30-2.34L20.30-2.34Q21.87-2.34 22.74-3.44L22.74-3.44L24.25-1.66Q23.63-0.81 22.50-0.31Q21.38 0.20 20.08 0.20ZM19.71-8.22L19.71-8.22Q18.26-8.22 17.99-6.31L17.99-6.31L21.31-6.31L21.31-6.56Q21.33-7.35 20.91-7.79Q20.49-8.22 19.71-8.22ZM30.97 0.20L30.97 0.20Q28.54 0.20 27.03-1.25Q25.53-2.71 25.53-5.03L25.53-5.03L25.53-5.30Q25.53-6.92 26.13-8.16Q26.73-9.40 27.88-10.08Q29.03-10.76 30.62-10.76L30.62-10.76Q32.84-10.76 34.13-9.38Q35.42-8.00 35.42-5.53L35.42-5.53L35.42-4.25L28.88-4.25Q29.05-3.36 29.65-2.85Q30.24-2.34 31.19-2.34L31.19-2.34Q32.75-2.34 33.63-3.44L33.63-3.44L35.14-1.66Q34.52-0.81 33.39-0.31Q32.27 0.20 30.97 0.20ZM30.60-8.22L30.60-8.22Q29.15-8.22 28.88-6.31L28.88-6.31L32.20-6.31L32.20-6.56Q32.22-7.35 31.80-7.79Q31.38-8.22 30.60-8.22ZM36.33-5.36L36.33-5.36Q36.33-7.87 37.41-9.32Q38.50-10.76 40.44-10.76L40.44-10.76Q41.86-10.76 42.82-9.65L42.82-9.65L42.82-15L46.12-15L46.12 0L43.16 0L43.00-1.13Q41.98 0.20 40.42 0.20L40.42 0.20Q38.54 0.20 37.43-1.25Q36.33-2.70 36.33-5.36ZM39.63-5.76L39.62-5.16Q39.62-2.34 41.26-2.34L41.26-2.34Q42.35-2.34 42.82-3.26L42.82-3.26L42.82-7.29Q42.37-8.22 41.28-8.22L41.28-8.22Q39.76-8.22 39.63-5.76L39.63-5.76ZM60.19-7.47L60.19-6.82Q60.19-4.74 59.41-3.13Q58.64-1.53 57.22-0.67Q55.80 0.20 53.98 0.20Q52.17 0.20 50.76-0.64Q49.36-1.47 48.57-3.03Q47.78-4.58 47.74-6.59L47.74-6.59L47.74-7.39Q47.74-9.48 48.51-11.08Q49.28-12.68 50.71-13.54Q52.14-14.41 53.96-14.41L53.96-14.41Q55.77-14.41 57.19-13.55Q58.60-12.70 59.39-11.11Q60.18-9.52 60.19-7.47L60.19-7.47ZM56.70-6.76L56.70-7.41Q56.70-9.53 55.99-10.63Q55.28-11.73 53.96-11.73L53.96-11.73Q51.39-11.73 51.24-7.86L51.24-7.86L51.23-6.82Q51.23-4.73 51.92-3.60Q52.62-2.48 53.98-2.48L53.98-2.48Q55.28-2.48 55.99-3.58Q56.69-4.69 56.70-6.76L56.70-6.76ZM61.74-10.57L64.82-10.57L64.93-9.33Q66.03-10.76 67.95-10.76L67.95-10.76Q69.60-10.76 70.42-9.78Q71.23-8.79 71.26-6.81L71.26-6.81L71.26 0L67.96 0L67.96-6.67Q67.96-7.47 67.64-7.85Q67.31-8.22 66.46-8.22L66.46-8.22Q65.50-8.22 65.03-7.46L65.03-7.46L65.03 0L61.74 0L61.74-10.57ZM78.19 0.20L78.19 0.20Q75.76 0.20 74.26-1.25Q72.75-2.71 72.75-5.03L72.75-5.03L72.75-5.30Q72.75-6.92 73.35-8.16Q73.96-9.40 75.11-10.08Q76.26-10.76 77.84-10.76L77.84-10.76Q80.07-10.76 81.36-9.38Q82.65-8.00 82.65-5.53L82.65-5.53L82.65-4.25L76.10-4.25Q76.28-3.36 76.88-2.85Q77.47-2.34 78.42-2.34L78.42-2.34Q79.98-2.34 80.86-3.44L80.86-3.44L82.36-1.66Q81.75-0.81 80.62-0.31Q79.49 0.20 78.19 0.20ZM77.82-8.22L77.82-8.22Q76.38-8.22 76.10-6.31L76.10-6.31L79.42-6.31L79.42-6.56Q79.44-7.35 79.02-7.79Q78.60-8.22 77.82-8.22Z"></path></g></g></svg><style>@media (prefers-color-scheme: light) { :root { filter: none; } }
@media (prefers-color-scheme: dark) { :root { filter: none; } }
</style></svg>